<svg xmlns="http://www.w3.org/2000/svg" xmlns:xlink="http://www.w3.org/1999/xlink" width="800" zoomAndPan="magnify" viewBox="0 0 600 149.999998" height="200" preserveAspectRatio="xMidYMid meet" version="1.0"><defs><g/><clipPath id="f5e529b7b0"><path d="M 278 36.292969 L 324 36.292969 L 324 81.292969 L 278 81.292969 Z M 278 36.292969 " clip-rule="nonzero"/></clipPath><clipPath id="e8112b57dd"><path d="M 284 36.292969 L 318 36.292969 L 318 81.292969 L 284 81.292969 Z M 284 36.292969 " clip-rule="nonzero"/></clipPath><clipPath id="023a09acbb"><path d="M 293 36.292969 L 308 36.292969 L 308 81.292969 L 293 81.292969 Z M 293 36.292969 " clip-rule="nonzero"/></clipPath><clipPath id="73b0c08915"><path d="M 274.53125 51 L 325.53125 51 L 325.53125 65 L 274.53125 65 Z M 274.53125 51 " clip-rule="nonzero"/></clipPath><clipPath id="63418cd9ee"><path d="M 313 52 L 325.53125 52 L 325.53125 65 L 313 65 Z M 313 52 " clip-rule="nonzero"/></clipPath></defs><g clip-path="url(#f5e529b7b0)"><path fill="#145da0" d="M 300.757812 81.292969 C 288.257812 81.292969 278.085938 71.199219 278.085938 58.792969 C 278.085938 46.386719 288.257812 36.292969 300.757812 36.292969 C 313.261719 36.292969 323.429688 46.386719 323.429688 58.792969 C 323.429688 71.199219 313.261719 81.292969 300.757812 81.292969 Z M 300.757812 37.960938 C 289.183594 37.960938 279.769531 47.304688 279.769531 58.792969 C 279.769531 70.277344 289.183594 79.625 300.757812 79.625 C 312.332031 79.625 321.75 70.277344 321.75 58.792969 C 321.75 47.304688 312.332031 37.960938 300.757812 37.960938 Z M 300.757812 37.960938 " fill-opacity="1" fill-rule="nonzero"/></g><path fill="#145da0" d="M 300.757812 51.886719 C 294.457031 51.886719 288.386719 49.253906 284.105469 44.65625 L 285.339844 43.523438 C 289.304688 47.777344 294.921875 50.21875 300.757812 50.21875 C 306.59375 50.21875 312.210938 47.777344 316.175781 43.523438 L 317.410156 44.65625 C 313.128906 49.253906 307.0625 51.886719 300.757812 51.886719 Z M 300.757812 51.886719 " fill-opacity="1" fill-rule="nonzero"/><path fill="#145da0" d="M 285.339844 74.144531 L 284.105469 73.011719 C 288.386719 68.417969 294.457031 65.78125 300.757812 65.78125 C 307.0625 65.78125 313.128906 68.417969 317.410156 73.011719 L 316.175781 74.144531 C 312.210938 69.890625 306.59375 67.449219 300.757812 67.449219 C 294.921875 67.449219 289.304688 69.890625 285.339844 74.144531 Z M 285.339844 74.144531 " fill-opacity="1" fill-rule="nonzero"/><g clip-path="url(#e8112b57dd)"><path fill="#145da0" d="M 300.757812 81.292969 C 296.234375 81.292969 292.003906 78.917969 288.835938 74.605469 C 285.730469 70.371094 284.019531 64.753906 284.019531 58.792969 C 284.019531 52.828125 285.730469 47.214844 288.835938 42.980469 C 292.003906 38.667969 296.234375 36.289062 300.757812 36.289062 C 305.28125 36.289062 309.511719 38.667969 312.679688 42.980469 C 315.785156 47.214844 317.496094 52.828125 317.496094 58.792969 C 317.496094 64.753906 315.785156 70.371094 312.679688 74.605469 C 309.515625 78.917969 305.28125 81.292969 300.757812 81.292969 Z M 300.757812 37.960938 C 292.457031 37.960938 285.703125 47.304688 285.703125 58.792969 C 285.703125 70.277344 292.457031 79.625 300.757812 79.625 C 309.058594 79.625 315.8125 70.277344 315.8125 58.792969 C 315.8125 47.304688 309.058594 37.960938 300.757812 37.960938 Z M 300.757812 37.960938 " fill-opacity="1" fill-rule="nonzero"/></g><g clip-path="url(#023a09acbb)"><path fill="#145da0" d="M 300.757812 81.292969 C 298.679688 81.292969 296.898438 78.890625 295.609375 74.339844 C 294.429688 70.175781 293.78125 64.652344 293.78125 58.792969 C 293.78125 52.929688 294.429688 47.410156 295.609375 43.246094 C 296.898438 38.695312 298.679688 36.289062 300.757812 36.289062 C 302.839844 36.289062 304.617188 38.695312 305.90625 43.246094 C 307.085938 47.410156 307.734375 52.929688 307.734375 58.792969 C 307.734375 64.652344 307.085938 70.175781 305.90625 74.339844 C 304.617188 78.890625 302.839844 81.292969 300.757812 81.292969 Z M 300.757812 37.960938 C 298.546875 37.960938 295.460938 45.886719 295.460938 58.792969 C 295.460938 71.699219 298.546875 79.625 300.757812 79.625 C 302.96875 79.625 306.054688 71.699219 306.054688 58.792969 C 306.054688 45.886719 302.96875 37.960938 300.757812 37.960938 Z M 300.757812 37.960938 " fill-opacity="1" fill-rule="nonzero"/></g><path fill="#ffffff" d="M 324.058594 63.273438 C 323.191406 64.226562 276.636719 64.363281 275.769531 63.273438 C 274.90625 62.1875 274.90625 54.292969 275.769531 53.207031 C 276.636719 52.117188 322.945312 52.390625 324.058594 53.207031 C 325.171875 54.023438 324.925781 62.324219 324.058594 63.273438 Z M 324.058594 63.273438 " fill-opacity="1" fill-rule="nonzero"/><g clip-path="url(#73b0c08915)"><path fill="#051d40" d="M 298.734375 64.542969 C 292.710938 64.542969 287.160156 64.476562 283.101562 64.355469 C 275.816406 64.140625 275.582031 63.847656 275.375 63.585938 C 274.671875 62.703125 274.617188 59.269531 274.617188 58.242188 C 274.617188 57.210938 274.671875 53.78125 275.375 52.894531 C 275.585938 52.628906 275.804688 52.355469 282.585938 52.15625 C 286.375 52.046875 291.472656 51.988281 297.328125 51.988281 C 303.6875 51.988281 310.203125 52.058594 315.207031 52.183594 C 323.804688 52.394531 324.152344 52.652344 324.359375 52.804688 C 324.652344 53.019531 325.011719 53.503906 325.199219 55.355469 C 325.464844 57.980469 325.257812 62.707031 324.433594 63.609375 C 324.226562 63.839844 323.96875 64.121094 315.832031 64.34375 C 311.21875 64.46875 304.988281 64.542969 298.734375 64.542969 Z M 276.125 62.894531 C 277.144531 63.210938 284.535156 63.539062 298.734375 63.539062 C 311.585938 63.539062 322.414062 63.25 323.722656 62.878906 C 323.953125 62.464844 324.257812 60.734375 324.296875 58.234375 C 324.335938 55.507812 324.027344 53.9375 323.78125 53.632812 C 322.539062 53.28125 310.550781 52.988281 297.328125 52.988281 C 283.949219 52.988281 277.105469 53.285156 276.125 53.585938 C 275.902344 54.011719 275.625 55.625 275.625 58.242188 C 275.625 60.855469 275.902344 62.46875 276.125 62.894531 Z M 276.125 62.894531 " fill-opacity="1" fill-rule="nonzero"/></g><path fill="#051d40" d="M 324.058594 53.207031 C 323.734375 52.96875 319.5625 52.777344 313.792969 52.652344 L 313.792969 63.894531 C 319.613281 63.765625 323.804688 63.554688 324.058594 63.277344 C 324.925781 62.324219 325.171875 54.023438 324.058594 53.207031 Z M 324.058594 53.207031 " fill-opacity="1" fill-rule="nonzero"/><g clip-path="url(#63418cd9ee)"><path fill="#051d40" d="M 313.289062 64.40625 L 313.289062 52.136719 L 313.804688 52.148438 C 323.761719 52.367188 324.152344 52.648438 324.359375 52.804688 C 324.652344 53.019531 325.011719 53.503906 325.199219 55.355469 C 325.464844 57.976562 325.257812 62.707031 324.433594 63.609375 C 324.21875 63.847656 323.925781 64.171875 313.804688 64.394531 Z M 314.296875 53.164062 L 314.296875 63.378906 C 321.804688 63.207031 323.394531 62.960938 323.726562 62.878906 C 323.953125 62.460938 324.257812 60.730469 324.292969 58.234375 C 324.335938 55.511719 324.027344 53.941406 323.78125 53.632812 C 323.507812 53.5625 322.046875 53.339844 314.296875 53.164062 Z M 314.296875 53.164062 " fill-opacity="1" fill-rule="nonzero"/></g><path fill="#051d40" d="M 283.894531 61.484375 C 283.691406 61.484375 283.503906 61.359375 283.425781 61.171875 L 282.191406 58.121094 L 280.828125 61.1875 C 280.746094 61.367188 280.566406 61.484375 280.367188 61.484375 C 280.363281 61.484375 280.363281 61.484375 280.363281 61.484375 C 280.160156 61.484375 279.980469 61.359375 279.902344 61.175781 L 277.992188 56.636719 C 277.882812 56.382812 278.007812 56.089844 278.261719 55.980469 C 278.519531 55.875 278.816406 55.996094 278.921875 56.25 L 280.378906 59.714844 L 281.753906 56.632812 C 281.835938 56.449219 282.015625 56.332031 282.214844 56.332031 C 282.21875 56.332031 282.222656 56.332031 282.222656 56.332031 C 282.425781 56.335938 282.609375 56.460938 282.683594 56.648438 L 283.859375 59.550781 L 284.992188 56.28125 C 285.082031 56.019531 285.371094 55.878906 285.632812 55.96875 C 285.898438 56.058594 286.035156 56.34375 285.945312 56.605469 L 284.375 61.148438 C 284.304688 61.34375 284.121094 61.480469 283.910156 61.484375 C 283.90625 61.484375 283.898438 61.484375 283.894531 61.484375 Z M 283.894531 61.484375 " fill-opacity="1" fill-rule="nonzero"/><path fill="#051d40" d="M 293.046875 61.484375 C 292.84375 61.484375 292.65625 61.359375 292.582031 61.171875 L 291.347656 58.121094 L 289.980469 61.1875 C 289.898438 61.371094 289.710938 61.480469 289.515625 61.484375 C 289.3125 61.484375 289.132812 61.359375 289.054688 61.175781 L 287.144531 56.636719 C 287.035156 56.382812 287.160156 56.089844 287.414062 55.980469 C 287.671875 55.875 287.96875 55.996094 288.074219 56.25 L 289.53125 59.714844 L 290.90625 56.632812 C 290.988281 56.449219 291.167969 56.332031 291.367188 56.332031 C 291.371094 56.332031 291.375 56.332031 291.375 56.332031 C 291.578125 56.335938 291.761719 56.460938 291.835938 56.648438 L 293.011719 59.550781 L 294.144531 56.28125 C 294.234375 56.019531 294.523438 55.878906 294.785156 55.96875 C 295.050781 56.058594 295.191406 56.34375 295.097656 56.605469 L 293.527344 61.148438 C 293.457031 61.34375 293.273438 61.480469 293.0625 61.484375 C 293.058594 61.484375 293.054688 61.484375 293.046875 61.484375 Z M 293.046875 61.484375 " fill-opacity="1" fill-rule="nonzero"/><path fill="#051d40" d="M 302.199219 61.484375 C 301.996094 61.484375 301.808594 61.359375 301.734375 61.171875 L 300.5 58.121094 L 299.132812 61.1875 C 299.050781 61.371094 298.867188 61.480469 298.667969 61.484375 C 298.464844 61.484375 298.285156 61.359375 298.207031 61.175781 L 296.296875 56.636719 C 296.191406 56.382812 296.3125 56.089844 296.570312 55.980469 C 296.824219 55.875 297.121094 55.996094 297.230469 56.25 L 298.683594 59.714844 L 300.058594 56.632812 C 300.140625 56.449219 300.320312 56.332031 300.519531 56.332031 C 300.523438 56.332031 300.527344 56.332031 300.53125 56.332031 C 300.730469 56.335938 300.914062 56.460938 300.988281 56.648438 L 302.164062 59.550781 L 303.296875 56.28125 C 303.386719 56.019531 303.675781 55.878906 303.9375 55.96875 C 304.203125 56.058594 304.34375 56.34375 304.25 56.605469 L 302.679688 61.148438 C 302.609375 61.34375 302.425781 61.480469 302.214844 61.484375 C 302.210938 61.484375 302.207031 61.484375 302.199219 61.484375 Z M 302.199219 61.484375 " fill-opacity="1" fill-rule="nonzero"/><path fill="#b1d4e0" d="M 319.640625 58.980469 C 318.324219 60.074219 316.355469 59.898438 315.257812 58.589844 C 314.15625 57.285156 314.332031 55.332031 315.648438 54.238281 C 316.964844 53.148438 318.933594 53.320312 320.035156 54.628906 C 321.132812 55.9375 320.957031 57.886719 319.640625 58.980469 Z M 316.296875 55.007812 C 315.40625 55.746094 315.285156 57.066406 316.03125 57.949219 C 316.773438 58.832031 318.105469 58.949219 318.992188 58.210938 C 319.882812 57.472656 320.003906 56.15625 319.257812 55.273438 C 318.515625 54.386719 317.1875 54.269531 316.296875 55.007812 Z M 316.296875 55.007812 " fill-opacity="1" fill-rule="nonzero"/><path fill="#b1d4e0" d="M 318.800781 59.023438 L 319.835938 58.167969 L 320.5 58.957031 L 319.464844 59.8125 Z M 318.800781 59.023438 " fill-opacity="1" fill-rule="nonzero"/><path fill="#b1d4e0" d="M 322.410156 62.269531 C 322.195312 62.445312 321.875 62.417969 321.699219 62.203125 L 320.078125 60.28125 C 319.898438 60.070312 319.929688 59.753906 320.144531 59.578125 C 320.355469 59.398438 320.675781 59.429688 320.855469 59.640625 L 322.472656 61.5625 C 322.652344 61.773438 322.621094 62.089844 322.410156 62.269531 Z M 322.410156 62.269531 " fill-opacity="1" fill-rule="nonzero"/><path fill="#b1d4e0" d="M 319.722656 59.597656 L 320.242188 59.167969 L 320.90625 59.957031 L 320.386719 60.386719 Z M 319.722656 59.597656 " fill-opacity="1" fill-rule="nonzero"/><g fill="#000000" fill-opacity="1"><g transform="translate(223.334464, 113.445471)"><g><path d="M 0.875 -6.421875 L 2.703125 -6.421875 C 3.503906 -6.421875 4.109375 -6.300781 4.515625 -6.0625 C 4.929688 -5.820312 5.140625 -5.410156 5.140625 -4.828125 C 5.140625 -4.453125 5.035156 -4.140625 4.828125 -3.890625 C 4.617188 -3.640625 4.316406 -3.476562 3.921875 -3.40625 L 3.921875 -3.359375 C 4.191406 -3.316406 4.4375 -3.238281 4.65625 -3.125 C 4.875 -3.007812 5.046875 -2.847656 5.171875 -2.640625 C 5.296875 -2.429688 5.359375 -2.160156 5.359375 -1.828125 C 5.359375 -1.242188 5.160156 -0.789062 4.765625 -0.46875 C 4.367188 -0.15625 3.820312 0 3.125 0 L 0.875 0 Z M 1.6875 -3.6875 L 2.875 -3.6875 C 3.414062 -3.6875 3.789062 -3.773438 4 -3.953125 C 4.207031 -4.128906 4.3125 -4.394531 4.3125 -4.75 C 4.3125 -5.101562 4.1875 -5.351562 3.9375 -5.5 C 3.6875 -5.65625 3.289062 -5.734375 2.75 -5.734375 L 1.6875 -5.734375 Z M 1.6875 -3.015625 L 1.6875 -0.6875 L 2.984375 -0.6875 C 3.546875 -0.6875 3.9375 -0.796875 4.15625 -1.015625 C 4.382812 -1.234375 4.5 -1.523438 4.5 -1.890625 C 4.5 -2.222656 4.382812 -2.492188 4.15625 -2.703125 C 3.925781 -2.910156 3.515625 -3.015625 2.921875 -3.015625 Z M 1.6875 -3.015625 "/></g></g></g><g fill="#000000" fill-opacity="1"><g transform="translate(229.832501, 113.445471)"><g><path d="M 2.625 -4.90625 C 3.03125 -4.90625 3.382812 -4.816406 3.6875 -4.640625 C 3.988281 -4.460938 4.21875 -4.207031 4.375 -3.875 C 4.53125 -3.550781 4.609375 -3.171875 4.609375 -2.734375 L 4.609375 -2.265625 L 1.3125 -2.265625 C 1.320312 -1.710938 1.460938 -1.289062 1.734375 -1 C 2.003906 -0.71875 2.378906 -0.578125 2.859375 -0.578125 C 3.160156 -0.578125 3.425781 -0.601562 3.65625 -0.65625 C 3.894531 -0.71875 4.144531 -0.804688 4.40625 -0.921875 L 4.40625 -0.21875 C 4.15625 -0.113281 3.910156 -0.0351562 3.671875 0.015625 C 3.429688 0.0664062 3.144531 0.09375 2.8125 0.09375 C 2.351562 0.09375 1.945312 0 1.59375 -0.1875 C 1.25 -0.375 0.976562 -0.648438 0.78125 -1.015625 C 0.59375 -1.378906 0.5 -1.832031 0.5 -2.375 C 0.5 -2.90625 0.585938 -3.359375 0.765625 -3.734375 C 0.941406 -4.109375 1.1875 -4.394531 1.5 -4.59375 C 1.820312 -4.800781 2.195312 -4.90625 2.625 -4.90625 Z M 2.625 -4.265625 C 2.238281 -4.265625 1.9375 -4.140625 1.71875 -3.890625 C 1.5 -3.648438 1.367188 -3.316406 1.328125 -2.890625 L 3.78125 -2.890625 C 3.78125 -3.296875 3.6875 -3.625 3.5 -3.875 C 3.3125 -4.132812 3.019531 -4.265625 2.625 -4.265625 Z M 2.625 -4.265625 "/></g></g></g><g fill="#000000" fill-opacity="1"><g transform="translate(235.556539, 113.445471)"><g><path d="M 3.90625 -1.328125 C 3.90625 -0.859375 3.726562 -0.503906 3.375 -0.265625 C 3.03125 -0.0234375 2.566406 0.09375 1.984375 0.09375 C 1.640625 0.09375 1.347656 0.0625 1.109375 0 C 0.867188 -0.0507812 0.65625 -0.125 0.46875 -0.21875 L 0.46875 -0.9375 C 0.65625 -0.84375 0.882812 -0.753906 1.15625 -0.671875 C 1.4375 -0.585938 1.71875 -0.546875 2 -0.546875 C 2.394531 -0.546875 2.679688 -0.609375 2.859375 -0.734375 C 3.046875 -0.867188 3.140625 -1.046875 3.140625 -1.265625 C 3.140625 -1.378906 3.101562 -1.484375 3.03125 -1.578125 C 2.96875 -1.679688 2.851562 -1.78125 2.6875 -1.875 C 2.519531 -1.96875 2.273438 -2.078125 1.953125 -2.203125 C 1.640625 -2.316406 1.367188 -2.429688 1.140625 -2.546875 C 0.921875 -2.671875 0.75 -2.816406 0.625 -2.984375 C 0.507812 -3.148438 0.453125 -3.367188 0.453125 -3.640625 C 0.453125 -4.046875 0.617188 -4.359375 0.953125 -4.578125 C 1.285156 -4.796875 1.722656 -4.90625 2.265625 -4.90625 C 2.554688 -4.90625 2.828125 -4.875 3.078125 -4.8125 C 3.335938 -4.757812 3.582031 -4.6875 3.8125 -4.59375 L 3.53125 -3.953125 C 3.332031 -4.046875 3.117188 -4.117188 2.890625 -4.171875 C 2.671875 -4.234375 2.445312 -4.265625 2.21875 -4.265625 C 1.894531 -4.265625 1.644531 -4.210938 1.46875 -4.109375 C 1.300781 -4.003906 1.21875 -3.863281 1.21875 -3.6875 C 1.21875 -3.539062 1.253906 -3.421875 1.328125 -3.328125 C 1.410156 -3.242188 1.539062 -3.15625 1.71875 -3.0625 C 1.90625 -2.976562 2.148438 -2.878906 2.453125 -2.765625 C 2.765625 -2.648438 3.023438 -2.53125 3.234375 -2.40625 C 3.453125 -2.289062 3.617188 -2.144531 3.734375 -1.96875 C 3.847656 -1.800781 3.90625 -1.585938 3.90625 -1.328125 Z M 3.90625 -1.328125 "/></g></g></g><g fill="#000000" fill-opacity="1"><g transform="translate(240.515574, 113.445471)"><g><path d="M 2.375 -0.5625 C 2.5 -0.5625 2.625 -0.566406 2.75 -0.578125 C 2.875 -0.597656 2.972656 -0.625 3.046875 -0.65625 L 3.046875 -0.046875 C 2.960938 -0.00390625 2.84375 0.0234375 2.6875 0.046875 C 2.53125 0.078125 2.378906 0.09375 2.234375 0.09375 C 1.984375 0.09375 1.75 0.0507812 1.53125 -0.03125 C 1.320312 -0.125 1.148438 -0.273438 1.015625 -0.484375 C 0.890625 -0.703125 0.828125 -1.007812 0.828125 -1.40625 L 0.828125 -4.21875 L 0.140625 -4.21875 L 0.140625 -4.59375 L 0.84375 -4.90625 L 1.15625 -5.9375 L 1.625 -5.9375 L 1.625 -4.828125 L 3.015625 -4.828125 L 3.015625 -4.21875 L 1.625 -4.21875 L 1.625 -1.421875 C 1.625 -1.128906 1.691406 -0.910156 1.828125 -0.765625 C 1.972656 -0.628906 2.15625 -0.5625 2.375 -0.5625 Z M 2.375 -0.5625 "/></g></g></g><g fill="#000000" fill-opacity="1"><g transform="translate(244.412597, 113.445471)"><g/></g></g><g fill="#000000" fill-opacity="1"><g transform="translate(245.960607, 113.445471)"><g><path d="M 8.25 -6.421875 L 6.546875 0 L 5.71875 0 L 4.46875 -4.21875 C 4.414062 -4.382812 4.363281 -4.554688 4.3125 -4.734375 C 4.269531 -4.910156 4.234375 -5.066406 4.203125 -5.203125 C 4.171875 -5.335938 4.15625 -5.429688 4.15625 -5.484375 C 4.144531 -5.398438 4.109375 -5.226562 4.046875 -4.96875 C 3.984375 -4.71875 3.914062 -4.457031 3.84375 -4.1875 L 2.625 0 L 1.8125 0 L 0.109375 -6.421875 L 0.953125 -6.421875 L 1.953125 -2.5 C 2.023438 -2.226562 2.085938 -1.960938 2.140625 -1.703125 C 2.191406 -1.441406 2.234375 -1.195312 2.265625 -0.96875 C 2.285156 -1.207031 2.328125 -1.460938 2.390625 -1.734375 C 2.453125 -2.015625 2.519531 -2.285156 2.59375 -2.546875 L 3.734375 -6.421875 L 4.578125 -6.421875 L 5.75 -2.515625 C 5.832031 -2.242188 5.90625 -1.96875 5.96875 -1.6875 C 6.03125 -1.414062 6.078125 -1.175781 6.109375 -0.96875 C 6.128906 -1.195312 6.164062 -1.441406 6.21875 -1.703125 C 6.28125 -1.960938 6.347656 -2.234375 6.421875 -2.515625 L 7.40625 -6.421875 Z M 8.25 -6.421875 "/></g></g></g><g fill="#000000" fill-opacity="1"><g transform="translate(254.978667, 113.445471)"><g><path d="M 2.625 -4.90625 C 3.03125 -4.90625 3.382812 -4.816406 3.6875 -4.640625 C 3.988281 -4.460938 4.21875 -4.207031 4.375 -3.875 C 4.53125 -3.550781 4.609375 -3.171875 4.609375 -2.734375 L 4.609375 -2.265625 L 1.3125 -2.265625 C 1.320312 -1.710938 1.460938 -1.289062 1.734375 -1 C 2.003906 -0.71875 2.378906 -0.578125 2.859375 -0.578125 C 3.160156 -0.578125 3.425781 -0.601562 3.65625 -0.65625 C 3.894531 -0.71875 4.144531 -0.804688 4.40625 -0.921875 L 4.40625 -0.21875 C 4.15625 -0.113281 3.910156 -0.0351562 3.671875 0.015625 C 3.429688 0.0664062 3.144531 0.09375 2.8125 0.09375 C 2.351562 0.09375 1.945312 0 1.59375 -0.1875 C 1.25 -0.375 0.976562 -0.648438 0.78125 -1.015625 C 0.59375 -1.378906 0.5 -1.832031 0.5 -2.375 C 0.5 -2.90625 0.585938 -3.359375 0.765625 -3.734375 C 0.941406 -4.109375 1.1875 -4.394531 1.5 -4.59375 C 1.820312 -4.800781 2.195312 -4.90625 2.625 -4.90625 Z M 2.625 -4.265625 C 2.238281 -4.265625 1.9375 -4.140625 1.71875 -3.890625 C 1.5 -3.648438 1.367188 -3.316406 1.328125 -2.890625 L 3.78125 -2.890625 C 3.78125 -3.296875 3.6875 -3.625 3.5 -3.875 C 3.3125 -4.132812 3.019531 -4.265625 2.625 -4.265625 Z M 2.625 -4.265625 "/></g></g></g><g fill="#000000" fill-opacity="1"><g transform="translate(260.702703, 113.445471)"><g><path d="M 1.5625 -6.84375 L 1.5625 -5.171875 C 1.5625 -4.972656 1.554688 -4.785156 1.546875 -4.609375 C 1.535156 -4.429688 1.523438 -4.289062 1.515625 -4.1875 L 1.5625 -4.1875 C 1.695312 -4.382812 1.882812 -4.550781 2.125 -4.6875 C 2.363281 -4.832031 2.671875 -4.90625 3.046875 -4.90625 C 3.648438 -4.90625 4.132812 -4.695312 4.5 -4.28125 C 4.863281 -3.863281 5.046875 -3.238281 5.046875 -2.40625 C 5.046875 -1.582031 4.859375 -0.957031 4.484375 -0.53125 C 4.117188 -0.113281 3.640625 0.09375 3.046875 0.09375 C 2.671875 0.09375 2.363281 0.0234375 2.125 -0.109375 C 1.882812 -0.253906 1.695312 -0.421875 1.5625 -0.609375 L 1.5 -0.609375 L 1.328125 0 L 0.765625 0 L 0.765625 -6.84375 Z M 2.921875 -4.25 C 2.398438 -4.25 2.039062 -4.097656 1.84375 -3.796875 C 1.65625 -3.503906 1.5625 -3.050781 1.5625 -2.4375 L 1.5625 -2.40625 C 1.5625 -1.8125 1.65625 -1.351562 1.84375 -1.03125 C 2.039062 -0.71875 2.40625 -0.5625 2.9375 -0.5625 C 3.363281 -0.5625 3.679688 -0.71875 3.890625 -1.03125 C 4.109375 -1.351562 4.21875 -1.816406 4.21875 -2.421875 C 4.21875 -3.640625 3.785156 -4.25 2.921875 -4.25 Z M 2.921875 -4.25 "/></g></g></g><g fill="#000000" fill-opacity="1"><g transform="translate(266.885743, 113.445471)"><g><path d="M 3.90625 -1.328125 C 3.90625 -0.859375 3.726562 -0.503906 3.375 -0.265625 C 3.03125 -0.0234375 2.566406 0.09375 1.984375 0.09375 C 1.640625 0.09375 1.347656 0.0625 1.109375 0 C 0.867188 -0.0507812 0.65625 -0.125 0.46875 -0.21875 L 0.46875 -0.9375 C 0.65625 -0.84375 0.882812 -0.753906 1.15625 -0.671875 C 1.4375 -0.585938 1.71875 -0.546875 2 -0.546875 C 2.394531 -0.546875 2.679688 -0.609375 2.859375 -0.734375 C 3.046875 -0.867188 3.140625 -1.046875 3.140625 -1.265625 C 3.140625 -1.378906 3.101562 -1.484375 3.03125 -1.578125 C 2.96875 -1.679688 2.851562 -1.78125 2.6875 -1.875 C 2.519531 -1.96875 2.273438 -2.078125 1.953125 -2.203125 C 1.640625 -2.316406 1.367188 -2.429688 1.140625 -2.546875 C 0.921875 -2.671875 0.75 -2.816406 0.625 -2.984375 C 0.507812 -3.148438 0.453125 -3.367188 0.453125 -3.640625 C 0.453125 -4.046875 0.617188 -4.359375 0.953125 -4.578125 C 1.285156 -4.796875 1.722656 -4.90625 2.265625 -4.90625 C 2.554688 -4.90625 2.828125 -4.875 3.078125 -4.8125 C 3.335938 -4.757812 3.582031 -4.6875 3.8125 -4.59375 L 3.53125 -3.953125 C 3.332031 -4.046875 3.117188 -4.117188 2.890625 -4.171875 C 2.671875 -4.234375 2.445312 -4.265625 2.21875 -4.265625 C 1.894531 -4.265625 1.644531 -4.210938 1.46875 -4.109375 C 1.300781 -4.003906 1.21875 -3.863281 1.21875 -3.6875 C 1.21875 -3.539062 1.253906 -3.421875 1.328125 -3.328125 C 1.410156 -3.242188 1.539062 -3.15625 1.71875 -3.0625 C 1.90625 -2.976562 2.148438 -2.878906 2.453125 -2.765625 C 2.765625 -2.648438 3.023438 -2.53125 3.234375 -2.40625 C 3.453125 -2.289062 3.617188 -2.144531 3.734375 -1.96875 C 3.847656 -1.800781 3.90625 -1.585938 3.90625 -1.328125 Z M 3.90625 -1.328125 "/></g></g></g><g fill="#000000" fill-opacity="1"><g transform="translate(271.844776, 113.445471)"><g><path d="M 1.171875 -6.640625 C 1.285156 -6.640625 1.390625 -6.597656 1.484375 -6.515625 C 1.578125 -6.429688 1.625 -6.300781 1.625 -6.125 C 1.625 -5.957031 1.578125 -5.832031 1.484375 -5.75 C 1.390625 -5.664062 1.285156 -5.625 1.171875 -5.625 C 1.035156 -5.625 0.921875 -5.664062 0.828125 -5.75 C 0.742188 -5.832031 0.703125 -5.957031 0.703125 -6.125 C 0.703125 -6.300781 0.742188 -6.429688 0.828125 -6.515625 C 0.921875 -6.597656 1.035156 -6.640625 1.171875 -6.640625 Z M 1.5625 -4.828125 L 1.5625 0 L 0.765625 0 L 0.765625 -4.828125 Z M 1.5625 -4.828125 "/></g></g></g><g fill="#000000" fill-opacity="1"><g transform="translate(274.814793, 113.445471)"><g><path d="M 2.375 -0.5625 C 2.5 -0.5625 2.625 -0.566406 2.75 -0.578125 C 2.875 -0.597656 2.972656 -0.625 3.046875 -0.65625 L 3.046875 -0.046875 C 2.960938 -0.00390625 2.84375 0.0234375 2.6875 0.046875 C 2.53125 0.078125 2.378906 0.09375 2.234375 0.09375 C 1.984375 0.09375 1.75 0.0507812 1.53125 -0.03125 C 1.320312 -0.125 1.148438 -0.273438 1.015625 -0.484375 C 0.890625 -0.703125 0.828125 -1.007812 0.828125 -1.40625 L 0.828125 -4.21875 L 0.140625 -4.21875 L 0.140625 -4.59375 L 0.84375 -4.90625 L 1.15625 -5.9375 L 1.625 -5.9375 L 1.625 -4.828125 L 3.015625 -4.828125 L 3.015625 -4.21875 L 1.625 -4.21875 L 1.625 -1.421875 C 1.625 -1.128906 1.691406 -0.910156 1.828125 -0.765625 C 1.972656 -0.628906 2.15625 -0.5625 2.375 -0.5625 Z M 2.375 -0.5625 "/></g></g></g><g fill="#000000" fill-opacity="1"><g transform="translate(278.711815, 113.445471)"><g><path d="M 2.625 -4.90625 C 3.03125 -4.90625 3.382812 -4.816406 3.6875 -4.640625 C 3.988281 -4.460938 4.21875 -4.207031 4.375 -3.875 C 4.53125 -3.550781 4.609375 -3.171875 4.609375 -2.734375 L 4.609375 -2.265625 L 1.3125 -2.265625 C 1.320312 -1.710938 1.460938 -1.289062 1.734375 -1 C 2.003906 -0.71875 2.378906 -0.578125 2.859375 -0.578125 C 3.160156 -0.578125 3.425781 -0.601562 3.65625 -0.65625 C 3.894531 -0.71875 4.144531 -0.804688 4.40625 -0.921875 L 4.40625 -0.21875 C 4.15625 -0.113281 3.910156 -0.0351562 3.671875 0.015625 C 3.429688 0.0664062 3.144531 0.09375 2.8125 0.09375 C 2.351562 0.09375 1.945312 0 1.59375 -0.1875 C 1.25 -0.375 0.976562 -0.648438 0.78125 -1.015625 C 0.59375 -1.378906 0.5 -1.832031 0.5 -2.375 C 0.5 -2.90625 0.585938 -3.359375 0.765625 -3.734375 C 0.941406 -4.109375 1.1875 -4.394531 1.5 -4.59375 C 1.820312 -4.800781 2.195312 -4.90625 2.625 -4.90625 Z M 2.625 -4.265625 C 2.238281 -4.265625 1.9375 -4.140625 1.71875 -3.890625 C 1.5 -3.648438 1.367188 -3.316406 1.328125 -2.890625 L 3.78125 -2.890625 C 3.78125 -3.296875 3.6875 -3.625 3.5 -3.875 C 3.3125 -4.132812 3.019531 -4.265625 2.625 -4.265625 Z M 2.625 -4.265625 "/></g></g></g><g fill="#000000" fill-opacity="1"><g transform="translate(284.435851, 113.445471)"><g/></g></g><g fill="#000000" fill-opacity="1"><g transform="translate(285.983859, 113.445471)"><g><path d="M 2.984375 -4.21875 L 1.765625 -4.21875 L 1.765625 0 L 0.984375 0 L 0.984375 -4.21875 L 0.140625 -4.21875 L 0.140625 -4.578125 L 0.984375 -4.84375 L 0.984375 -5.125 C 0.984375 -5.75 1.117188 -6.195312 1.390625 -6.46875 C 1.660156 -6.75 2.046875 -6.890625 2.546875 -6.890625 C 2.734375 -6.890625 2.90625 -6.867188 3.0625 -6.828125 C 3.226562 -6.796875 3.367188 -6.757812 3.484375 -6.71875 L 3.28125 -6.109375 C 3.175781 -6.128906 3.0625 -6.15625 2.9375 -6.1875 C 2.8125 -6.21875 2.6875 -6.234375 2.5625 -6.234375 C 2.289062 -6.234375 2.085938 -6.144531 1.953125 -5.96875 C 1.828125 -5.789062 1.765625 -5.515625 1.765625 -5.140625 L 1.765625 -4.828125 L 2.984375 -4.828125 Z M 2.984375 -4.21875 "/></g></g></g><g fill="#000000" fill-opacity="1"><g transform="translate(289.727885, 113.445471)"><g><path d="M 4.953125 -2.421875 C 4.953125 -1.617188 4.75 -1 4.34375 -0.5625 C 3.945312 -0.125 3.398438 0.09375 2.703125 0.09375 C 2.273438 0.09375 1.894531 -0.00390625 1.5625 -0.203125 C 1.238281 -0.398438 0.976562 -0.6875 0.78125 -1.0625 C 0.59375 -1.4375 0.5 -1.890625 0.5 -2.421875 C 0.5 -3.222656 0.695312 -3.835938 1.09375 -4.265625 C 1.488281 -4.691406 2.035156 -4.90625 2.734375 -4.90625 C 3.171875 -4.90625 3.554688 -4.804688 3.890625 -4.609375 C 4.222656 -4.421875 4.484375 -4.140625 4.671875 -3.765625 C 4.859375 -3.398438 4.953125 -2.953125 4.953125 -2.421875 Z M 1.3125 -2.421875 C 1.3125 -1.847656 1.421875 -1.394531 1.640625 -1.0625 C 1.867188 -0.726562 2.234375 -0.5625 2.734375 -0.5625 C 3.210938 -0.5625 3.566406 -0.726562 3.796875 -1.0625 C 4.023438 -1.394531 4.140625 -1.847656 4.140625 -2.421875 C 4.140625 -2.992188 4.023438 -3.441406 3.796875 -3.765625 C 3.566406 -4.085938 3.207031 -4.25 2.71875 -4.25 C 2.226562 -4.25 1.867188 -4.085938 1.640625 -3.765625 C 1.421875 -3.441406 1.3125 -2.992188 1.3125 -2.421875 Z M 1.3125 -2.421875 "/></g></g></g><g fill="#000000" fill-opacity="1"><g transform="translate(295.820926, 113.445471)"><g><path d="M 3.015625 -4.90625 C 3.109375 -4.90625 3.203125 -4.898438 3.296875 -4.890625 C 3.398438 -4.890625 3.492188 -4.878906 3.578125 -4.859375 L 3.484375 -4.125 C 3.398438 -4.144531 3.3125 -4.160156 3.21875 -4.171875 C 3.125 -4.179688 3.039062 -4.1875 2.96875 -4.1875 C 2.71875 -4.1875 2.484375 -4.117188 2.265625 -3.984375 C 2.046875 -3.847656 1.875 -3.660156 1.75 -3.421875 C 1.625 -3.179688 1.5625 -2.898438 1.5625 -2.578125 L 1.5625 0 L 0.765625 0 L 0.765625 -4.828125 L 1.40625 -4.828125 L 1.5 -3.9375 L 1.53125 -3.9375 C 1.6875 -4.207031 1.890625 -4.4375 2.140625 -4.625 C 2.390625 -4.8125 2.679688 -4.90625 3.015625 -4.90625 Z M 3.015625 -4.90625 "/></g></g></g><g fill="#000000" fill-opacity="1"><g transform="translate(300.185953, 113.445471)"><g/></g></g><g fill="#000000" fill-opacity="1"><g transform="translate(301.733961, 113.445471)"><g><path d="M 3.90625 -1.328125 C 3.90625 -0.859375 3.726562 -0.503906 3.375 -0.265625 C 3.03125 -0.0234375 2.566406 0.09375 1.984375 0.09375 C 1.640625 0.09375 1.347656 0.0625 1.109375 0 C 0.867188 -0.0507812 0.65625 -0.125 0.46875 -0.21875 L 0.46875 -0.9375 C 0.65625 -0.84375 0.882812 -0.753906 1.15625 -0.671875 C 1.4375 -0.585938 1.71875 -0.546875 2 -0.546875 C 2.394531 -0.546875 2.679688 -0.609375 2.859375 -0.734375 C 3.046875 -0.867188 3.140625 -1.046875 3.140625 -1.265625 C 3.140625 -1.378906 3.101562 -1.484375 3.03125 -1.578125 C 2.96875 -1.679688 2.851562 -1.78125 2.6875 -1.875 C 2.519531 -1.96875 2.273438 -2.078125 1.953125 -2.203125 C 1.640625 -2.316406 1.367188 -2.429688 1.140625 -2.546875 C 0.921875 -2.671875 0.75 -2.816406 0.625 -2.984375 C 0.507812 -3.148438 0.453125 -3.367188 0.453125 -3.640625 C 0.453125 -4.046875 0.617188 -4.359375 0.953125 -4.578125 C 1.285156 -4.796875 1.722656 -4.90625 2.265625 -4.90625 C 2.554688 -4.90625 2.828125 -4.875 3.078125 -4.8125 C 3.335938 -4.757812 3.582031 -4.6875 3.8125 -4.59375 L 3.53125 -3.953125 C 3.332031 -4.046875 3.117188 -4.117188 2.890625 -4.171875 C 2.671875 -4.234375 2.445312 -4.265625 2.21875 -4.265625 C 1.894531 -4.265625 1.644531 -4.210938 1.46875 -4.109375 C 1.300781 -4.003906 1.21875 -3.863281 1.21875 -3.6875 C 1.21875 -3.539062 1.253906 -3.421875 1.328125 -3.328125 C 1.410156 -3.242188 1.539062 -3.15625 1.71875 -3.0625 C 1.90625 -2.976562 2.148438 -2.878906 2.453125 -2.765625 C 2.765625 -2.648438 3.023438 -2.53125 3.234375 -2.40625 C 3.453125 -2.289062 3.617188 -2.144531 3.734375 -1.96875 C 3.847656 -1.800781 3.90625 -1.585938 3.90625 -1.328125 Z M 3.90625 -1.328125 "/></g></g></g><g fill="#000000" fill-opacity="1"><g transform="translate(306.689928, 113.445471)"><g><path d="M 1.5625 -6.84375 L 1.5625 -4.828125 C 1.5625 -4.585938 1.546875 -4.363281 1.515625 -4.15625 L 1.5625 -4.15625 C 1.71875 -4.40625 1.925781 -4.59375 2.1875 -4.71875 C 2.457031 -4.84375 2.75 -4.90625 3.0625 -4.90625 C 3.644531 -4.90625 4.082031 -4.765625 4.375 -4.484375 C 4.675781 -4.203125 4.828125 -3.753906 4.828125 -3.140625 L 4.828125 0 L 4.046875 0 L 4.046875 -3.09375 C 4.046875 -3.863281 3.6875 -4.25 2.96875 -4.25 C 2.425781 -4.25 2.054688 -4.097656 1.859375 -3.796875 C 1.660156 -3.492188 1.5625 -3.0625 1.5625 -2.5 L 1.5625 0 L 0.765625 0 L 0.765625 -6.84375 Z M 1.5625 -6.84375 "/></g></g></g><g fill="#000000" fill-opacity="1"><g transform="translate(312.899963, 113.445471)"><g><path d="M 4.953125 -2.421875 C 4.953125 -1.617188 4.75 -1 4.34375 -0.5625 C 3.945312 -0.125 3.398438 0.09375 2.703125 0.09375 C 2.273438 0.09375 1.894531 -0.00390625 1.5625 -0.203125 C 1.238281 -0.398438 0.976562 -0.6875 0.78125 -1.0625 C 0.59375 -1.4375 0.5 -1.890625 0.5 -2.421875 C 0.5 -3.222656 0.695312 -3.835938 1.09375 -4.265625 C 1.488281 -4.691406 2.035156 -4.90625 2.734375 -4.90625 C 3.171875 -4.90625 3.554688 -4.804688 3.890625 -4.609375 C 4.222656 -4.421875 4.484375 -4.140625 4.671875 -3.765625 C 4.859375 -3.398438 4.953125 -2.953125 4.953125 -2.421875 Z M 1.3125 -2.421875 C 1.3125 -1.847656 1.421875 -1.394531 1.640625 -1.0625 C 1.867188 -0.726562 2.234375 -0.5625 2.734375 -0.5625 C 3.210938 -0.5625 3.566406 -0.726562 3.796875 -1.0625 C 4.023438 -1.394531 4.140625 -1.847656 4.140625 -2.421875 C 4.140625 -2.992188 4.023438 -3.441406 3.796875 -3.765625 C 3.566406 -4.085938 3.207031 -4.25 2.71875 -4.25 C 2.226562 -4.25 1.867188 -4.085938 1.640625 -3.765625 C 1.421875 -3.441406 1.3125 -2.992188 1.3125 -2.421875 Z M 1.3125 -2.421875 "/></g></g></g><g fill="#000000" fill-opacity="1"><g transform="translate(318.993004, 113.445471)"><g><path d="M 3.015625 -4.90625 C 3.109375 -4.90625 3.203125 -4.898438 3.296875 -4.890625 C 3.398438 -4.890625 3.492188 -4.878906 3.578125 -4.859375 L 3.484375 -4.125 C 3.398438 -4.144531 3.3125 -4.160156 3.21875 -4.171875 C 3.125 -4.179688 3.039062 -4.1875 2.96875 -4.1875 C 2.71875 -4.1875 2.484375 -4.117188 2.265625 -3.984375 C 2.046875 -3.847656 1.875 -3.660156 1.75 -3.421875 C 1.625 -3.179688 1.5625 -2.898438 1.5625 -2.578125 L 1.5625 0 L 0.765625 0 L 0.765625 -4.828125 L 1.40625 -4.828125 L 1.5 -3.9375 L 1.53125 -3.9375 C 1.6875 -4.207031 1.890625 -4.4375 2.140625 -4.625 C 2.390625 -4.8125 2.679688 -4.90625 3.015625 -4.90625 Z M 3.015625 -4.90625 "/></g></g></g><g fill="#000000" fill-opacity="1"><g transform="translate(323.358034, 113.445471)"><g><path d="M 2.375 -0.5625 C 2.5 -0.5625 2.625 -0.566406 2.75 -0.578125 C 2.875 -0.597656 2.972656 -0.625 3.046875 -0.65625 L 3.046875 -0.046875 C 2.960938 -0.00390625 2.84375 0.0234375 2.6875 0.046875 C 2.53125 0.078125 2.378906 0.09375 2.234375 0.09375 C 1.984375 0.09375 1.75 0.0507812 1.53125 -0.03125 C 1.320312 -0.125 1.148438 -0.273438 1.015625 -0.484375 C 0.890625 -0.703125 0.828125 -1.007812 0.828125 -1.40625 L 0.828125 -4.21875 L 0.140625 -4.21875 L 0.140625 -4.59375 L 0.84375 -4.90625 L 1.15625 -5.9375 L 1.625 -5.9375 L 1.625 -4.828125 L 3.015625 -4.828125 L 3.015625 -4.21875 L 1.625 -4.21875 L 1.625 -1.421875 C 1.625 -1.128906 1.691406 -0.910156 1.828125 -0.765625 C 1.972656 -0.628906 2.15625 -0.5625 2.375 -0.5625 Z M 2.375 -0.5625 "/></g></g></g><g fill="#000000" fill-opacity="1"><g transform="translate(327.255057, 113.445471)"><g><path d="M 2.625 -4.90625 C 3.03125 -4.90625 3.382812 -4.816406 3.6875 -4.640625 C 3.988281 -4.460938 4.21875 -4.207031 4.375 -3.875 C 4.53125 -3.550781 4.609375 -3.171875 4.609375 -2.734375 L 4.609375 -2.265625 L 1.3125 -2.265625 C 1.320312 -1.710938 1.460938 -1.289062 1.734375 -1 C 2.003906 -0.71875 2.378906 -0.578125 2.859375 -0.578125 C 3.160156 -0.578125 3.425781 -0.601562 3.65625 -0.65625 C 3.894531 -0.71875 4.144531 -0.804688 4.40625 -0.921875 L 4.40625 -0.21875 C 4.15625 -0.113281 3.910156 -0.0351562 3.671875 0.015625 C 3.429688 0.0664062 3.144531 0.09375 2.8125 0.09375 C 2.351562 0.09375 1.945312 0 1.59375 -0.1875 C 1.25 -0.375 0.976562 -0.648438 0.78125 -1.015625 C 0.59375 -1.378906 0.5 -1.832031 0.5 -2.375 C 0.5 -2.90625 0.585938 -3.359375 0.765625 -3.734375 C 0.941406 -4.109375 1.1875 -4.394531 1.5 -4.59375 C 1.820312 -4.800781 2.195312 -4.90625 2.625 -4.90625 Z M 2.625 -4.265625 C 2.238281 -4.265625 1.9375 -4.140625 1.71875 -3.890625 C 1.5 -3.648438 1.367188 -3.316406 1.328125 -2.890625 L 3.78125 -2.890625 C 3.78125 -3.296875 3.6875 -3.625 3.5 -3.875 C 3.3125 -4.132812 3.019531 -4.265625 2.625 -4.265625 Z M 2.625 -4.265625 "/></g></g></g><g fill="#000000" fill-opacity="1"><g transform="translate(332.979094, 113.445471)"><g><path d="M 3.09375 -4.90625 C 3.664062 -4.90625 4.097656 -4.765625 4.390625 -4.484375 C 4.679688 -4.203125 4.828125 -3.753906 4.828125 -3.140625 L 4.828125 0 L 4.046875 0 L 4.046875 -3.09375 C 4.046875 -3.863281 3.6875 -4.25 2.96875 -4.25 C 2.4375 -4.25 2.066406 -4.097656 1.859375 -3.796875 C 1.660156 -3.492188 1.5625 -3.0625 1.5625 -2.5 L 1.5625 0 L 0.765625 0 L 0.765625 -4.828125 L 1.40625 -4.828125 L 1.515625 -4.171875 L 1.5625 -4.171875 C 1.71875 -4.421875 1.929688 -4.601562 2.203125 -4.71875 C 2.484375 -4.84375 2.78125 -4.90625 3.09375 -4.90625 Z M 3.09375 -4.90625 "/></g></g></g><g fill="#000000" fill-opacity="1"><g transform="translate(339.189127, 113.445471)"><g><path d="M 1.171875 -6.640625 C 1.285156 -6.640625 1.390625 -6.597656 1.484375 -6.515625 C 1.578125 -6.429688 1.625 -6.300781 1.625 -6.125 C 1.625 -5.957031 1.578125 -5.832031 1.484375 -5.75 C 1.390625 -5.664062 1.285156 -5.625 1.171875 -5.625 C 1.035156 -5.625 0.921875 -5.664062 0.828125 -5.75 C 0.742188 -5.832031 0.703125 -5.957031 0.703125 -6.125 C 0.703125 -6.300781 0.742188 -6.429688 0.828125 -6.515625 C 0.921875 -6.597656 1.035156 -6.640625 1.171875 -6.640625 Z M 1.5625 -4.828125 L 1.5625 0 L 0.765625 0 L 0.765625 -4.828125 Z M 1.5625 -4.828125 "/></g></g></g><g fill="#000000" fill-opacity="1"><g transform="translate(342.159143, 113.445471)"><g><path d="M 3.09375 -4.90625 C 3.664062 -4.90625 4.097656 -4.765625 4.390625 -4.484375 C 4.679688 -4.203125 4.828125 -3.753906 4.828125 -3.140625 L 4.828125 0 L 4.046875 0 L 4.046875 -3.09375 C 4.046875 -3.863281 3.6875 -4.25 2.96875 -4.25 C 2.4375 -4.25 2.066406 -4.097656 1.859375 -3.796875 C 1.660156 -3.492188 1.5625 -3.0625 1.5625 -2.5 L 1.5625 0 L 0.765625 0 L 0.765625 -4.828125 L 1.40625 -4.828125 L 1.515625 -4.171875 L 1.5625 -4.171875 C 1.71875 -4.421875 1.929688 -4.601562 2.203125 -4.71875 C 2.484375 -4.84375 2.78125 -4.90625 3.09375 -4.90625 Z M 3.09375 -4.90625 "/></g></g></g><g fill="#000000" fill-opacity="1"><g transform="translate(348.369176, 113.445471)"><g><path d="M 2.46875 -4.90625 C 2.789062 -4.90625 3.078125 -4.84375 3.328125 -4.71875 C 3.585938 -4.601562 3.804688 -4.425781 3.984375 -4.1875 L 4.03125 -4.1875 L 4.140625 -4.828125 L 4.765625 -4.828125 L 4.765625 0.078125 C 4.765625 0.765625 4.585938 1.28125 4.234375 1.625 C 3.890625 1.976562 3.347656 2.15625 2.609375 2.15625 C 1.898438 2.15625 1.320312 2.054688 0.875 1.859375 L 0.875 1.125 C 1.34375 1.375 1.9375 1.5 2.65625 1.5 C 3.070312 1.5 3.394531 1.378906 3.625 1.140625 C 3.863281 0.898438 3.984375 0.566406 3.984375 0.140625 L 3.984375 -0.046875 C 3.984375 -0.117188 3.984375 -0.222656 3.984375 -0.359375 C 3.992188 -0.492188 4.003906 -0.585938 4.015625 -0.640625 L 3.984375 -0.640625 C 3.648438 -0.148438 3.148438 0.09375 2.484375 0.09375 C 1.859375 0.09375 1.367188 -0.125 1.015625 -0.5625 C 0.671875 -1 0.5 -1.613281 0.5 -2.40625 C 0.5 -3.175781 0.671875 -3.785156 1.015625 -4.234375 C 1.367188 -4.679688 1.851562 -4.90625 2.46875 -4.90625 Z M 2.578125 -4.25 C 2.179688 -4.25 1.867188 -4.085938 1.640625 -3.765625 C 1.421875 -3.441406 1.3125 -2.984375 1.3125 -2.390625 C 1.3125 -1.796875 1.421875 -1.34375 1.640625 -1.03125 C 1.859375 -0.71875 2.175781 -0.5625 2.59375 -0.5625 C 3.082031 -0.5625 3.4375 -0.691406 3.65625 -0.953125 C 3.882812 -1.210938 4 -1.632812 4 -2.21875 L 4 -2.40625 C 4 -3.0625 3.882812 -3.53125 3.65625 -3.8125 C 3.425781 -4.101562 3.066406 -4.25 2.578125 -4.25 Z M 2.578125 -4.25 "/></g></g></g><g fill="#000000" fill-opacity="1"><g transform="translate(354.5493, 113.445471)"><g/></g></g><g fill="#000000" fill-opacity="1"><g transform="translate(356.097309, 113.445471)"><g><path d="M 0.015625 -4.828125 L 0.859375 -4.828125 L 1.90625 -2.078125 C 1.988281 -1.828125 2.066406 -1.59375 2.140625 -1.375 C 2.210938 -1.164062 2.265625 -0.960938 2.296875 -0.765625 L 2.34375 -0.765625 C 2.375 -0.910156 2.425781 -1.101562 2.5 -1.34375 C 2.582031 -1.59375 2.664062 -1.84375 2.75 -2.09375 L 3.734375 -4.828125 L 4.59375 -4.828125 L 2.515625 0.671875 C 2.335938 1.117188 2.113281 1.476562 1.84375 1.75 C 1.582031 2.019531 1.21875 2.15625 0.75 2.15625 C 0.613281 2.15625 0.488281 2.144531 0.375 2.125 C 0.269531 2.113281 0.175781 2.101562 0.09375 2.09375 L 0.09375 1.453125 C 0.164062 1.460938 0.25 1.472656 0.34375 1.484375 C 0.4375 1.503906 0.53125 1.515625 0.625 1.515625 C 0.90625 1.515625 1.128906 1.4375 1.296875 1.28125 C 1.460938 1.125 1.597656 0.914062 1.703125 0.65625 L 1.953125 0.015625 Z M 0.015625 -4.828125 "/></g></g></g><g fill="#000000" fill-opacity="1"><g transform="translate(361.335339, 113.445471)"><g><path d="M 4.953125 -2.421875 C 4.953125 -1.617188 4.75 -1 4.34375 -0.5625 C 3.945312 -0.125 3.398438 0.09375 2.703125 0.09375 C 2.273438 0.09375 1.894531 -0.00390625 1.5625 -0.203125 C 1.238281 -0.398438 0.976562 -0.6875 0.78125 -1.0625 C 0.59375 -1.4375 0.5 -1.890625 0.5 -2.421875 C 0.5 -3.222656 0.695312 -3.835938 1.09375 -4.265625 C 1.488281 -4.691406 2.035156 -4.90625 2.734375 -4.90625 C 3.171875 -4.90625 3.554688 -4.804688 3.890625 -4.609375 C 4.222656 -4.421875 4.484375 -4.140625 4.671875 -3.765625 C 4.859375 -3.398438 4.953125 -2.953125 4.953125 -2.421875 Z M 1.3125 -2.421875 C 1.3125 -1.847656 1.421875 -1.394531 1.640625 -1.0625 C 1.867188 -0.726562 2.234375 -0.5625 2.734375 -0.5625 C 3.210938 -0.5625 3.566406 -0.726562 3.796875 -1.0625 C 4.023438 -1.394531 4.140625 -1.847656 4.140625 -2.421875 C 4.140625 -2.992188 4.023438 -3.441406 3.796875 -3.765625 C 3.566406 -4.085938 3.207031 -4.25 2.71875 -4.25 C 2.226562 -4.25 1.867188 -4.085938 1.640625 -3.765625 C 1.421875 -3.441406 1.3125 -2.992188 1.3125 -2.421875 Z M 1.3125 -2.421875 "/></g></g></g><g fill="#000000" fill-opacity="1"><g transform="translate(367.42838, 113.445471)"><g><path d="M 4.796875 -4.828125 L 4.796875 0 L 4.15625 0 L 4.03125 -0.640625 L 4 -0.640625 C 3.84375 -0.390625 3.625 -0.203125 3.34375 -0.078125 C 3.070312 0.0351562 2.78125 0.09375 2.46875 0.09375 C 1.882812 0.09375 1.445312 -0.046875 1.15625 -0.328125 C 0.863281 -0.609375 0.71875 -1.054688 0.71875 -1.671875 L 0.71875 -4.828125 L 1.515625 -4.828125 L 1.515625 -1.71875 C 1.515625 -0.945312 1.867188 -0.5625 2.578125 -0.5625 C 3.117188 -0.5625 3.488281 -0.710938 3.6875 -1.015625 C 3.894531 -1.316406 4 -1.75 4 -2.3125 L 4 -4.828125 Z M 4.796875 -4.828125 "/></g></g></g><g fill="#000000" fill-opacity="1"><g transform="translate(373.638415, 113.445471)"><g><path d="M 3.015625 -4.90625 C 3.109375 -4.90625 3.203125 -4.898438 3.296875 -4.890625 C 3.398438 -4.890625 3.492188 -4.878906 3.578125 -4.859375 L 3.484375 -4.125 C 3.398438 -4.144531 3.3125 -4.160156 3.21875 -4.171875 C 3.125 -4.179688 3.039062 -4.1875 2.96875 -4.1875 C 2.71875 -4.1875 2.484375 -4.117188 2.265625 -3.984375 C 2.046875 -3.847656 1.875 -3.660156 1.75 -3.421875 C 1.625 -3.179688 1.5625 -2.898438 1.5625 -2.578125 L 1.5625 0 L 0.765625 0 L 0.765625 -4.828125 L 1.40625 -4.828125 L 1.5 -3.9375 L 1.53125 -3.9375 C 1.6875 -4.207031 1.890625 -4.4375 2.140625 -4.625 C 2.390625 -4.8125 2.679688 -4.90625 3.015625 -4.90625 Z M 3.015625 -4.90625 "/></g></g></g><g fill="#000000" fill-opacity="1"><g transform="translate(378.003444, 113.445471)"><g/></g></g><g fill="#000000" fill-opacity="1"><g transform="translate(379.551453, 113.445471)"><g><path d="M 5.765625 -6.421875 L 5.765625 -2.265625 C 5.765625 -1.828125 5.671875 -1.425781 5.484375 -1.0625 C 5.304688 -0.707031 5.03125 -0.425781 4.65625 -0.21875 C 4.289062 -0.0078125 3.828125 0.09375 3.265625 0.09375 C 2.453125 0.09375 1.835938 -0.125 1.421875 -0.5625 C 1.015625 -1 0.8125 -1.570312 0.8125 -2.28125 L 0.8125 -6.421875 L 1.625 -6.421875 L 1.625 -2.265625 C 1.625 -1.734375 1.757812 -1.320312 2.03125 -1.03125 C 2.3125 -0.75 2.734375 -0.609375 3.296875 -0.609375 C 3.878906 -0.609375 4.300781 -0.757812 4.5625 -1.0625 C 4.820312 -1.375 4.953125 -1.773438 4.953125 -2.265625 L 4.953125 -6.421875 Z M 5.765625 -6.421875 "/></g></g></g><g fill="#000000" fill-opacity="1"><g transform="translate(386.778499, 113.445471)"><g><path d="M 2.640625 -6.421875 C 3.441406 -6.421875 4.03125 -6.269531 4.40625 -5.96875 C 4.789062 -5.664062 4.984375 -5.207031 4.984375 -4.59375 C 4.984375 -4.257812 4.921875 -3.976562 4.796875 -3.75 C 4.671875 -3.519531 4.507812 -3.332031 4.3125 -3.1875 C 4.113281 -3.050781 3.910156 -2.945312 3.703125 -2.875 L 5.46875 0 L 4.515625 0 L 2.96875 -2.65625 L 1.6875 -2.65625 L 1.6875 0 L 0.875 0 L 0.875 -6.421875 Z M 2.59375 -5.71875 L 1.6875 -5.71875 L 1.6875 -3.34375 L 2.640625 -3.34375 C 3.160156 -3.34375 3.539062 -3.441406 3.78125 -3.640625 C 4.03125 -3.847656 4.15625 -4.15625 4.15625 -4.5625 C 4.15625 -4.976562 4.023438 -5.273438 3.765625 -5.453125 C 3.515625 -5.628906 3.125 -5.71875 2.59375 -5.71875 Z M 2.59375 -5.71875 "/></g></g></g><g fill="#000000" fill-opacity="1"><g transform="translate(393.024535, 113.445471)"><g><path d="M 0.875 0 L 0.875 -6.421875 L 1.6875 -6.421875 L 1.6875 -0.71875 L 4.484375 -0.71875 L 4.484375 0 Z M 0.875 0 "/></g></g></g><g fill="#000000" fill-opacity="1"><g transform="translate(310.850084, 125.44547)"><g/></g></g><g fill="#000000" fill-opacity="1"><g transform="translate(263.008275, 102.566919)"><g><path d="M 2.96875 0 C 3.175781 0 3.285156 -0.105469 3.285156 -0.316406 L 3.285156 -7.128906 L 9.96875 0 C 10.398438 0.421875 10.78125 0.285156 10.78125 -0.277344 L 10.78125 -11.472656 C 10.78125 -11.679688 10.671875 -11.785156 10.464844 -11.785156 L 8.984375 -11.785156 C 8.785156 -11.785156 8.671875 -11.679688 8.671875 -11.472656 L 8.671875 -4.839844 L 1.949219 -11.824219 C 1.550781 -12.222656 1.179688 -12.078125 1.179688 -11.515625 L 1.179688 -0.316406 C 1.179688 -0.105469 1.289062 0 1.496094 0 Z M 2.96875 0 "/></g></g></g><g fill="#000000" fill-opacity="1"><g transform="translate(274.332487, 102.566919)"><g><path d="M 3.007812 0 C 3.214844 0 3.324219 -0.105469 3.324219 -0.316406 L 3.324219 -11.472656 C 3.324219 -11.679688 3.214844 -11.785156 3.007812 -11.785156 L 1.480469 -11.785156 C 1.273438 -11.785156 1.167969 -11.679688 1.167969 -11.472656 L 1.167969 -0.316406 C 1.167969 -0.105469 1.273438 0 1.480469 0 Z M 3.007812 0 "/></g></g></g><g fill="#000000" fill-opacity="1"><g transform="translate(278.176384, 102.566919)"><g><path d="M 7.804688 -4.242188 C 9.09375 -4.847656 9.765625 -6.078125 9.765625 -7.847656 C 9.765625 -10.21875 8.546875 -11.785156 5.300781 -11.785156 L 1.480469 -11.785156 C 1.273438 -11.785156 1.167969 -11.679688 1.167969 -11.472656 L 1.167969 -0.316406 C 1.167969 -0.105469 1.273438 0 1.480469 0 L 3.007812 0 C 3.214844 0 3.324219 -0.105469 3.324219 -0.316406 L 3.324219 -3.820312 L 5.6875 -3.820312 L 7.488281 -0.238281 C 7.566406 -0.078125 7.671875 0 7.847656 0 L 9.605469 0 C 9.84375 0 9.945312 -0.152344 9.835938 -0.375 Z M 3.324219 -9.875 L 5.027344 -9.875 C 5.871094 -9.875 7.625 -9.859375 7.625 -7.832031 C 7.625 -5.746094 5.777344 -5.722656 5.027344 -5.722656 L 3.324219 -5.722656 Z M 3.324219 -9.875 "/></g></g></g><g fill="#000000" fill-opacity="1"><g transform="translate(288.204007, 102.566919)"><g><path d="M 6.023438 -11.785156 C 5.847656 -12.183594 5.515625 -12.183594 5.332031 -11.785156 L 0.253906 -0.367188 C 0.152344 -0.144531 0.253906 0 0.484375 0 L 2.179688 0 C 2.347656 0 2.476562 -0.078125 2.539062 -0.246094 L 3.207031 -1.902344 L 8.15625 -1.902344 L 8.824219 -0.246094 C 8.886719 -0.078125 9.015625 0 9.183594 0 L 10.871094 0 C 11.109375 0 11.203125 -0.144531 11.109375 -0.367188 Z M 5.6875 -8.035156 L 7.457031 -3.628906 L 3.90625 -3.628906 Z M 5.6875 -8.035156 "/></g></g></g><g fill="#000000" fill-opacity="1"><g transform="translate(298.929794, 102.566919)"><g><path d="M 2.441406 0.277344 C 4.390625 0.277344 4.894531 -1.003906 4.894531 -3.085938 L 4.894531 -11.472656 C 4.894531 -11.679688 4.789062 -11.785156 4.582031 -11.785156 L 3.0625 -11.785156 C 2.863281 -11.785156 2.746094 -11.679688 2.746094 -11.472656 L 2.746094 -3.015625 C 2.746094 -2.132812 2.570312 -1.6875 1.832031 -1.6875 C 1.640625 -1.6875 1.367188 -1.710938 0.9375 -1.839844 C 0.714844 -1.902344 0.582031 -1.824219 0.542969 -1.617188 L 0.292969 -0.375 C 0.253906 -0.183594 0.328125 -0.0546875 0.53125 0.0078125 C 1.335938 0.246094 1.941406 0.277344 2.441406 0.277344 Z M 2.441406 0.277344 "/></g></g></g><g fill="#000000" fill-opacity="1"><g transform="translate(304.315786, 102.566919)"><g><path d="M 4.550781 -3.285156 C 4.757812 -3.285156 4.863281 -3.390625 4.863281 -3.597656 L 4.863281 -4.542969 C 4.863281 -4.742188 4.757812 -4.855469 4.550781 -4.855469 L 0.730469 -4.855469 C 0.53125 -4.855469 0.414062 -4.742188 0.414062 -4.542969 L 0.414062 -3.597656 C 0.414062 -3.390625 0.53125 -3.285156 0.730469 -3.285156 Z M 4.550781 -3.285156 "/></g></g></g><g fill="#000000" fill-opacity="1"><g transform="translate(308.949911, 102.566919)"><g><path d="M 5.625 0.277344 C 8.125 0.277344 10.191406 -0.929688 10.191406 -3.84375 L 10.191406 -11.472656 C 10.191406 -11.679688 10.082031 -11.785156 9.875 -11.785156 L 8.300781 -11.785156 C 8.101562 -11.785156 7.988281 -11.679688 7.988281 -11.472656 L 7.988281 -4.257812 C 7.988281 -2.386719 7.113281 -1.710938 5.625 -1.710938 C 4.167969 -1.710938 3.269531 -2.386719 3.269531 -4.257812 L 3.269531 -11.472656 C 3.269531 -11.679688 3.160156 -11.785156 2.953125 -11.785156 L 1.382812 -11.785156 C 1.179688 -11.785156 1.066406 -11.679688 1.066406 -11.472656 L 1.066406 -3.84375 C 1.066406 -0.929688 3.183594 0.277344 5.625 0.277344 Z M 5.625 0.277344 "/></g></g></g><g fill="#000000" fill-opacity="1"><g transform="translate(319.560616, 102.566919)"><g><path d="M 7.804688 -4.242188 C 9.09375 -4.847656 9.765625 -6.078125 9.765625 -7.847656 C 9.765625 -10.21875 8.546875 -11.785156 5.300781 -11.785156 L 1.480469 -11.785156 C 1.273438 -11.785156 1.167969 -11.679688 1.167969 -11.472656 L 1.167969 -0.316406 C 1.167969 -0.105469 1.273438 0 1.480469 0 L 3.007812 0 C 3.214844 0 3.324219 -0.105469 3.324219 -0.316406 L 3.324219 -3.820312 L 5.6875 -3.820312 L 7.488281 -0.238281 C 7.566406 -0.078125 7.671875 0 7.847656 0 L 9.605469 0 C 9.84375 0 9.945312 -0.152344 9.835938 -0.375 Z M 3.324219 -9.875 L 5.027344 -9.875 C 5.871094 -9.875 7.625 -9.859375 7.625 -7.832031 C 7.625 -5.746094 5.777344 -5.722656 5.027344 -5.722656 L 3.324219 -5.722656 Z M 3.324219 -9.875 "/></g></g></g><g fill="#000000" fill-opacity="1"><g transform="translate(329.58824, 102.566919)"><g><path d="M 6.835938 0 C 7.042969 0 7.152344 -0.105469 7.152344 -0.316406 L 7.152344 -1.597656 C 7.152344 -1.796875 7.042969 -1.910156 6.835938 -1.910156 L 3.324219 -1.910156 L 3.324219 -11.472656 C 3.324219 -11.679688 3.214844 -11.785156 3.007812 -11.785156 L 1.480469 -11.785156 C 1.273438 -11.785156 1.167969 -11.679688 1.167969 -11.472656 L 1.167969 -0.316406 C 1.167969 -0.105469 1.273438 0 1.480469 0 Z M 6.835938 0 "/></g></g></g></svg>